<?xml version="1.0" encoding="iso-8859-1"?>
<!-- Uploaded to: SVG Repo, www.svgrepo.com, Generator: SVG Repo Mixer Tools -->
<svg height="800px" width="800px" version="1.1" id="Layer_1" xmlns="http://www.w3.org/2000/svg" xmlns:xlink="http://www.w3.org/1999/xlink" 
	 viewBox="0 0 512 512" xml:space="preserve">
<path style="fill:#495E77;" d="M512,257.393c0,33.995-27.56,61.543-61.543,61.543c-17.632,0-33.51-7.426-44.731-19.304
	c-16.894,12.131-37.604,19.304-59.998,19.304c-19.131,0-37.027-5.235-52.387-14.322c-12.027,8.995-26.961,14.322-43.128,14.322
	c-39.818,0-72.106-32.277-72.106-72.095c0-39.83,32.288-72.106,72.106-72.106c0.357,0,0.715,0.023,1.072,0.035
	c15.89-36.416,52.191-61.866,94.443-61.866c45.296,0,83.741,29.232,97.545,69.858c1.464,4.29,2.641,8.695,3.529,13.215
	c1.211-0.081,2.422-0.127,3.655-0.127C484.44,195.85,512,223.41,512,257.393z"/>
<path style="fill:#778BA0;" d="M416.693,322.304c0,42.413-34.387,76.788-76.811,76.788c-21.991,0-41.813-9.26-55.812-24.078
	c-21.091,15.141-46.933,24.078-74.874,24.078c-23.882,0-46.23-6.527-65.383-17.874c-3.344,2.502-6.861,4.774-10.54,6.792
	c-7.276,4.001-15.152,7.023-23.467,8.902c-6.377,1.43-13.007,2.179-19.823,2.179c-49.701,0-89.98-40.279-89.98-89.968
	c0-49.701,40.279-89.992,89.98-89.992c0.45,0,0.899,0.046,1.349,0.046c19.823-45.434,65.13-77.215,117.863-77.215
	c3.298,0,6.561,0.127,9.813,0.381c58.061,4.37,105.34,47.325,116.318,103.299c1.511-0.081,3.033-0.15,4.555-0.15
	C382.306,245.493,416.693,279.879,416.693,322.304z"/>
<path style="fill:#5E7284;" d="M219.004,142.34c0,0-81.937,22.521-100.981,93.738c0,0-72.881,8.285-72.881,72.05
	c0,63.78,33.209,80.654,64.658,88.776c0,0.007,0-0.001,0,0.006c-6.372,1.429-13.006,2.186-19.813,2.186
	C40.285,399.096,0,358.81,0,309.121c0-49.702,40.285-89.987,89.987-89.987c0.447,0,0.895,0.038,1.341,0.038
	c19.826-45.428,65.13-77.204,117.863-77.204C212.496,141.967,215.763,142.091,219.004,142.34z"/>
<g>
	<path style="fill:#495E77;" d="M251.141,317.041c7.845,3.021,14.677,5.417,21.534,6.899c6.813,1.49,13.447,2.257,20.11,2.253
		c6.662-0.015,13.291-0.782,20.1-2.273c6.851-1.486,13.683-3.872,21.542-6.88c-3.065,7.878-9.274,14.245-16.673,18.646
		c-7.431,4.415-16.211,6.704-24.97,6.699c-8.758-0.013-17.534-2.303-24.961-6.719C260.428,331.261,254.22,324.905,251.141,317.041z"
		/>
	<path style="fill:#495E77;" d="M261.652,298.157c-7.849,0-11.609-10.097-5.623-15.224c2.841-2.433,7.078-2.731,10.24-0.733
		c3.007,1.9,4.583,5.603,3.843,9.088C269.277,295.233,265.696,298.157,261.652,298.157z"/>
	<path style="fill:#495E77;" d="M323.922,298.157c-7.625,0-11.489-9.601-6-14.879c5.588-5.372,15.209-0.856,14.622,6.866
		C332.204,294.599,328.4,298.157,323.922,298.157z"/>
</g>
</svg>