<?xml version="1.0" encoding="utf-8"?><!-- Uploaded to: SVG Repo, www.svgrepo.com, Generator: SVG Repo Mixer Tools -->
<svg width="800px" height="800px" viewBox="0 0 48 48" xmlns="http://www.w3.org/2000/svg"><title>70 Basic icons by Xicons.co</title><path d="M44,17.91a8.8,8.8,0,0,0-5.7-3.63q0-.4,0-0.81A11.71,11.71,0,0,0,15,11.55a12.16,12.16,0,0,0-1.89-.15C7,11.41,2,16,2,21.65,2,27.11,5.06,31,9.87,31.76,10.29,32,37.6,32,37.93,31.82c4.65-.54,8.07-4,8.07-8.25A9.14,9.14,0,0,0,44,17.91Z" fill="#e1e6e8"/><path d="M29.92,46.5a2,2,0,0,1-1.18-.38,2,2,0,0,1-.43-2.76l6.15-8.28a2,2,0,0,1,2.79-.43,2,2,0,0,1,.43,2.76l-6.15,8.28A2,2,0,0,1,29.92,46.5Z" fill="#38b1e7"/><path d="M19.92,46.5a2,2,0,0,1-1.18-.38,2,2,0,0,1-.43-2.76l6.15-8.28a2,2,0,0,1,2.79-.43,2,2,0,0,1,.43,2.76l-6.15,8.28A2,2,0,0,1,19.92,46.5Z" fill="#38b1e7"/><path d="M8.92,46.5a2,2,0,0,1-1.18-.38,2,2,0,0,1-.43-2.76l6.15-8.28a2,2,0,0,1,2.79-.43,2,2,0,0,1,.43,2.76l-6.15,8.28A2,2,0,0,1,8.92,46.5Z" fill="#38b1e7"/></svg>