<?xml version="1.0" encoding="utf-8"?>
<!-- Uploaded to: SVG Repo, www.svgrepo.com, Generator: SVG Repo Mixer Tools -->
<svg width="800px" height="800px" viewBox="0 0 128 128" xmlns="http://www.w3.org/2000/svg" xmlns:xlink="http://www.w3.org/1999/xlink" aria-hidden="true" role="img" class="iconify iconify--noto" preserveAspectRatio="xMidYMid meet">
<path d="M126.99 80.89L108.1 64.13l.06-.3L127 47.14l-24.83-5.09l-.07-.12l8-24.05l-24.02 8.02l-.12-.08L80.86 1L64.01 20.03h-.02L47.11 1.01l-5.08 24.88l-.06.03l-24.07-8.04l8 24.05c-.04.04-.07.09-.11.13L1.01 47.11l19 16.87l-.01.05L1 80.86l24.89 5.11l.02.04l-8.02 24.11l24.05-8.03l.1.08l5.1 24.83l16.84-19.01h.05l16.87 19l5.07-24.86l.07-.04l24.09 8.02l-8.02-24.03l.07-.12l24.81-5.07z" fill="#ffb300">
</path>
<radialGradient id="IconifyId17ecdb2904d178eab20564" cx="64" cy="64" r="75.481" gradientUnits="userSpaceOnUse">
<stop offset=".556" stop-color="#ffb604">
</stop>
<stop offset=".691" stop-color="#fec61b">
</stop>
<stop offset=".822" stop-color="#fdd835">
</stop>
</radialGradient>
<path d="M126.99 80.89L108.1 64.13l.06-.3L127 47.14l-24.83-5.09l-.07-.12l8-24.05l-24.02 8.02l-.12-.08L80.86 1L64.01 20.03h-.02L47.11 1.01l-5.08 24.88l-.06.03l-24.07-8.04l8 24.05c-.04.04-.07.09-.11.13L1.01 47.11l19 16.87l-.01.05L1 80.86l24.89 5.11l.02.04l-8.02 24.11l24.05-8.03l.1.08l5.1 24.83l16.84-19.01h.05l16.87 19l5.07-24.86l.07-.04l24.09 8.02l-8.02-24.03l.07-.12l24.81-5.07z" fill="url(#IconifyId17ecdb2904d178eab20564)">
</path>
<circle cx="64" cy="64" r="42.46" fill="#ffb300">
</circle>
<radialGradient id="IconifyId17ecdb2904d178eab20565" cx="66.147" cy="100.924" r="66.57" gradientTransform="matrix(1 0 0 1.0876 0 -8.844)" gradientUnits="userSpaceOnUse">
<stop offset=".694" stop-color="#ffb604">
</stop>
<stop offset=".849" stop-color="#fec61b">
</stop>
<stop offset="1" stop-color="#fdd835">
</stop>
</radialGradient>
<circle cx="64" cy="64" r="42.46" fill="url(#IconifyId17ecdb2904d178eab20565)">
</circle>
<g fill="#5d4037">
<ellipse cx="46.8" cy="54.29" rx="5.25" ry="6.17">
</ellipse>
<ellipse cx="81.2" cy="54.29" rx="5.25" ry="6.17">
</ellipse>
</g>
<path d="M75.81 75.67c-1.7 1.11-5.31 3.72-11.82 3.72S53.59 76.85 52 75.54c-.73-.61-1.66-1.1-2.34-.59c-.68.51-.81 1.55-.33 2.29c1.84 2.85 6.71 7.13 14.65 7.27c7.94-.14 12.81-4.42 14.65-7.27c.4-.62.44-1.51-.03-1.99c-.61-.64-1.75-.26-2.79.42z" fill="#5d4037">
</path>
<path d="M58.89 69.52c-1.39-1.42-.11-2.17 1.42-1.74c1.93.54 5.01.28 5.81-1.3c1.52-3.04-.38-4.76-2.74-10.02c-2.46-5.5.63-11.49 4.2-11.8c2.86-.24 1.91 1.12 1.01 1.7c-1.75 1.14-3.6 4.93-.77 9.17c4.82 7.21 4.82 10.62 2.33 14.06c-1.61 2.22-7.35 3.94-11.26-.07z" fill="#de7321">
</path>
<radialGradient id="IconifyId17ecdb2904d178eab20566" cx="-1858.159" cy="139.608" r="15.525" gradientTransform="matrix(-.7447 -.3192 -.3117 .736 -1297.374 -633.673)" gradientUnits="userSpaceOnUse">
<stop offset="0" stop-color="#ef6c00">
</stop>
<stop offset="1" stop-color="#ef6c00" stop-opacity="0">
</stop>
</radialGradient>
<path d="M50.38 71.89c-1.63 3.93-7.05 5.42-12.12 3.33c-5.06-2.09-7.85-6.98-6.22-10.91c1.63-3.93 7.05-5.42 12.12-3.33c5.06 2.09 7.85 6.98 6.22 10.91z" opacity=".65" fill="url(#IconifyId17ecdb2904d178eab20566)">
</path>
<radialGradient id="IconifyId17ecdb2904d178eab20567" cx="200.244" cy="-2.317" r="15.525" gradientTransform="matrix(.7447 -.3192 .3117 .736 -63.29 127.89)" gradientUnits="userSpaceOnUse">
<stop offset="0" stop-color="#ef6c00">
</stop>
<stop offset="1" stop-color="#ef6c00" stop-opacity="0">
</stop>
</radialGradient>
<path d="M77.62 71.89c1.63 3.93 7.05 5.42 12.12 3.33c5.06-2.09 7.85-6.98 6.22-10.91c-1.63-3.93-7.05-5.42-12.12-3.33c-5.06 2.09-7.85 6.98-6.22 10.91z" opacity=".65" fill="url(#IconifyId17ecdb2904d178eab20567)">
</path>
</svg>